<svg width="512" height="512" fill="none" xmlns="http://www.w3.org/2000/svg"><g clip-path="url(#a)"><path d="M256 512c141.385 0 256-114.615 256-256S397.385 0 256 0 0 114.615 0 256s114.615 256 256 256Z" fill="#059669"/><path d="M400.272 356.08H112.048v-205.6h288.24v205.6h-.016Zm-272.224-16h256.24v-173.6h-256.24v173.6Z" fill="#fff"/><path d="m256.176 279.824-140.352-87.12 8.432-13.6 131.888 81.872 131.888-82.512 8.496 13.568-140.352 87.792Z" fill="#fff"/><path d="m386.65 352.927 12.58-9.884-84.759-107.878-12.581 9.885 84.76 107.877ZM126.032 352.944l-12.608-9.888 84.784-107.888 12.592 9.872-84.768 107.904Z" fill="#fff"/></g><defs><clipPath id="a"><path fill="#fff" d="M0 0h512v512H0z"/></clipPath></defs></svg>